VIDEO INFO:


Format                           : Matroska
File size                        : 3.78 GiB
Duration                         : 1h 28mn
Overall bit rate                 : 6 113 Kbps
Encoded date                     : UTC 2011-07-16 06:55:40
Writing application              : mkvmerge v4.9.1 (\'Ich will\') gemaakt op Jul 11 2011 23:53:15
Writing library                  : libebml v1.2.1 + libmatroska v1.1.1

Video
ID                               : 1
Format                           : AVC
Format/Info                      : Advanced Video Codec
Format profile                   : High@L4.1
Format settings, CABAC           : Yes
Format settings, ReFrames        : 9 frames
Muxing mode                      : Header stripping
Codec ID                         : V_MPEG4/ISO/AVC
Duration                         : 1h 28mn
Bit rate                         : 5 608 Kbps
Width                            : 1 280 pixels
Height                           : 716 pixels
Display aspect ratio             : 16:9
Frame rate                       : 25.000 fps
Color space                      : YUV
Chroma subsampling               : 4:2:0
Bit depth                        : 8 bits
Scan type                        : Progressive
Bits/(Pixel*Frame)               : 0.245
Stream size                      : 3.46 GiB (92%)
Language                         : English

Audio
ID                               : 2
Format                           : AC-3
Format/Info                      : Audio Coding 3
Format profile                   : Dolby Digital
Mode extension                   : CM (complete main)
Muxing mode                      : Header stripping
Codec ID                         : A_AC3
Duration                         : 1h 28mn
Bit rate mode                    : Constant
Bit rate                         : 384 Kbps
Channel(s)                       : 2 channels
Channel positions                : Front: L R
Sampling rate                    : 48.0 KHz
Bit depth                        : 16 bits
Compression mode                 : Lossy
Stream size                      : 243 MiB (6%)
Title                            : Eng
Language                         : English

Text
ID                               : 3
Format                           : UTF-8
Codec ID                         : S_TEXT/UTF8
Codec ID/Info                    : UTF-8 Plain Text

--------------------

Verenigde Staten
Thriller / Horror
92 minuten

geregisseerd door Tom Holland
met Robert John Burke, Joe Mantegna en Kari Wuhrer

Een dikke advocaat rijdt een zigeunervrouw aan, maar wordt, mede door zijn contacten, vrijgesproken van alle blaam. Een zigeuner spreekt uit wraak een vloek over de betrokkenen uit. De advocaat verliest plots kilo\'s per dag. In het begin een godsgeschenk, maar er komt geen einde aan. De advocaat moet de zigeuner opsporen, om de vloek ongedaan te maken voor het te laat is. Naar een boek van Stephen King.


Ondertiteling (Nederlands) in de film met mogelijkheid om deze wel of niet weer te geven.